<svg width="102" height="52" viewBox="0 0 102 52" fill="none" xmlns="http://www.w3.org/2000/svg">
<path d="M6.68311 23.5701C6.71961 21.1502 7.27047 18.7658 8.29911 16.5751V5.80908C5.73677 8.01189 3.67286 10.7351 2.24468 13.7975C0.816506 16.8599 0.0568054 20.1913 0.0161133 23.5701H6.68311Z" fill="#F39100"/>
<path d="M41.0651 23.569H47.7321C47.6563 17.3634 45.166 11.4313 40.7894 7.03121C36.4128 2.63108 30.4942 0.109023 24.2891 0V6.658C28.7262 6.77027 32.9485 8.59214 36.0744 11.7432C39.2004 14.8943 40.9884 19.1311 41.0651 23.569Z" fill="#F39100"/>
<path d="M23.6021 47.7429V41.0679C19.1375 40.9956 14.876 39.1898 11.7186 36.0324C8.56123 32.875 6.75548 28.6135 6.68311 24.1489H0.0161133C0.0926269 30.376 2.60035 36.3266 7.00391 40.7301C11.4075 45.1337 17.358 47.6414 23.5851 47.7179H23.6441L23.6021 47.7429Z" fill="#F39100"/>
<path d="M47.7321 24.1489H41.0571C40.9849 28.6093 39.1826 32.8671 36.0306 36.0238C32.8785 39.1805 28.6233 40.9891 24.1631 41.0679V47.7429H24.2141C30.4339 47.6556 36.3738 45.143 40.7683 40.7406C45.1629 36.3382 47.6648 30.3939 47.7411 24.1739L47.7321 24.1489Z" fill="#F39100"/>
<path d="M23.478 0.0239258C20.5358 0.0683376 17.6274 0.659029 14.901 1.76593V0.141926H8.25098V23.4579H14.901V9.20793C17.4798 7.62205 20.4342 6.75092 23.461 6.68393L23.478 0.0239258Z" fill="#1A1A18"/>
<path d="M23.317 23.342H0.287003V0.281992H23.317V23.342ZM0 23.611H23.569V0.0419922H0V23.611Z" fill="black"/>
<path d="M47.4711 23.342H24.4241V0.281992H47.4711V23.342ZM24.1631 23.611H47.7321V0.0419922H24.1631V23.611Z" fill="black"/>
<mask id="path-8-inside-1_11_950" fill="white">
<path d="M23.317 47.475H0.287003V24.4191H23.317V47.475ZM0 47.745H23.569V24.175H0V47.745Z"/>
</mask>
<path d="M23.317 47.475H0.287003V24.4191H23.317V47.475ZM0 47.745H23.569V24.175H0V47.745Z" fill="black"/>
<path d="M23.317 47.475V48.475H24.317V47.475H23.317ZM0.287003 47.475H-0.712997V48.475H0.287003V47.475ZM0.287003 24.4191V23.4191H-0.712997V24.4191H0.287003ZM23.317 24.4191H24.317V23.4191H23.317V24.4191ZM0 47.745H-1V48.745H0V47.745ZM23.569 47.745V48.745H24.569V47.745H23.569ZM23.569 24.175H24.569V23.175H23.569V24.175ZM0 24.175V23.175H-1V24.175H0ZM23.317 46.475H0.287003V48.475H23.317V46.475ZM1.287 47.475V24.4191H-0.712997V47.475H1.287ZM0.287003 25.4191H23.317V23.4191H0.287003V25.4191ZM22.317 24.4191V47.475H24.317V24.4191H22.317ZM0 48.745H23.569V46.745H0V48.745ZM24.569 47.745V24.175H22.569V47.745H24.569ZM23.569 23.175H0V25.175H23.569V23.175ZM-1 24.175V47.745H1V24.175H-1Z" fill="black" mask="url(#path-8-inside-1_11_950)"/>
<path d="M47.4711 47.475H24.4241V24.4191H47.4711V47.475ZM24.1631 47.745H47.7321V24.175H24.1631V47.745Z" fill="black"/>
<path d="M58.4102 44.7148V47H51.252V44.7148H58.4102ZM52.1992 32.7812V47H49.2695V32.7812H52.1992ZM62.8828 36.4336V47H60.0605V36.4336H62.8828ZM59.8848 33.6797C59.8848 33.2695 60.028 32.931 60.3145 32.6641C60.6009 32.3971 60.985 32.2637 61.4668 32.2637C61.9421 32.2637 62.3229 32.3971 62.6094 32.6641C62.9023 32.931 63.0488 33.2695 63.0488 33.6797C63.0488 34.0898 62.9023 34.4284 62.6094 34.6953C62.3229 34.9622 61.9421 35.0957 61.4668 35.0957C60.985 35.0957 60.6009 34.9622 60.3145 34.6953C60.028 34.4284 59.8848 34.0898 59.8848 33.6797ZM68.8008 44.9492L71.1445 36.4336H74.084L70.5195 47H68.7422L68.8008 44.9492ZM67.1895 36.4336L69.543 44.959L69.5918 47H67.8047L64.2402 36.4336H67.1895ZM78.3125 36.4336V47H75.4902V36.4336H78.3125ZM75.3145 33.6797C75.3145 33.2695 75.4577 32.931 75.7441 32.6641C76.0306 32.3971 76.4147 32.2637 76.8965 32.2637C77.3717 32.2637 77.7526 32.3971 78.0391 32.6641C78.332 32.931 78.4785 33.2695 78.4785 33.6797C78.4785 34.0898 78.332 34.4284 78.0391 34.6953C77.7526 34.9622 77.3717 35.0957 76.8965 35.0957C76.4147 35.0957 76.0306 34.9622 75.7441 34.6953C75.4577 34.4284 75.3145 34.0898 75.3145 33.6797ZM83.3906 38.6895V47H80.5781V36.4336H83.2148L83.3906 38.6895ZM82.9805 41.3457H82.2188C82.2188 40.5645 82.3197 39.8613 82.5215 39.2363C82.7233 38.6048 83.0065 38.0677 83.3711 37.625C83.7357 37.1758 84.1686 36.834 84.6699 36.5996C85.1777 36.3587 85.7441 36.2383 86.3691 36.2383C86.8639 36.2383 87.3164 36.3099 87.7266 36.4531C88.1367 36.5964 88.4883 36.8242 88.7812 37.1367C89.0807 37.4492 89.3086 37.8626 89.4648 38.377C89.6276 38.8913 89.709 39.5195 89.709 40.2617V47H86.877V40.252C86.877 39.7832 86.8118 39.4186 86.6816 39.1582C86.5514 38.8978 86.3594 38.7155 86.1055 38.6113C85.8581 38.5007 85.5521 38.4453 85.1875 38.4453C84.8099 38.4453 84.4811 38.5202 84.2012 38.6699C83.9277 38.8197 83.6999 39.028 83.5176 39.2949C83.3418 39.5553 83.2083 39.8613 83.1172 40.2129C83.026 40.5645 82.9805 40.9421 82.9805 41.3457ZM98.5371 36.4336H101.086V46.6484C101.086 47.612 100.871 48.429 100.441 49.0996C100.018 49.7767 99.4258 50.2878 98.6641 50.6328C97.9023 50.9844 97.0169 51.1602 96.0078 51.1602C95.5651 51.1602 95.0964 51.1016 94.6016 50.9844C94.1133 50.8672 93.6445 50.6849 93.1953 50.4375C92.7526 50.1901 92.3815 49.8776 92.082 49.5L93.3223 47.8398C93.6478 48.2174 94.0254 48.5104 94.4551 48.7188C94.8848 48.9336 95.36 49.041 95.8809 49.041C96.3887 49.041 96.8184 48.9466 97.1699 48.7578C97.5215 48.5755 97.7917 48.3053 97.9805 47.9473C98.1693 47.5957 98.2637 47.1693 98.2637 46.668V38.875L98.5371 36.4336ZM91.4277 41.8438V41.6387C91.4277 40.8314 91.5254 40.099 91.7207 39.4414C91.9225 38.7773 92.2057 38.2077 92.5703 37.7324C92.9414 37.2572 93.3906 36.8893 93.918 36.6289C94.4453 36.3685 95.041 36.2383 95.7051 36.2383C96.4082 36.2383 96.9974 36.3685 97.4727 36.6289C97.9479 36.8893 98.3385 37.2604 98.6445 37.7422C98.9505 38.2174 99.1882 38.7806 99.3574 39.4316C99.5332 40.0762 99.6699 40.7826 99.7676 41.5508V42C99.6699 42.7357 99.5234 43.4193 99.3281 44.0508C99.1328 44.6823 98.8757 45.2357 98.5566 45.7109C98.2376 46.1797 97.8405 46.5443 97.3652 46.8047C96.8965 47.0651 96.3366 47.1953 95.6855 47.1953C95.0345 47.1953 94.4453 47.0618 93.918 46.7949C93.3971 46.528 92.9512 46.1536 92.5801 45.6719C92.209 45.1901 91.9225 44.6237 91.7207 43.9727C91.5254 43.3216 91.4277 42.612 91.4277 41.8438ZM94.2402 41.6387V41.8438C94.2402 42.2799 94.2826 42.6868 94.3672 43.0645C94.4518 43.4421 94.582 43.7773 94.7578 44.0703C94.9401 44.3568 95.1647 44.5814 95.4316 44.7441C95.7051 44.9004 96.0273 44.9785 96.3984 44.9785C96.9128 44.9785 97.3327 44.8711 97.6582 44.6562C97.9837 44.4349 98.2279 44.1322 98.3906 43.748C98.5534 43.3639 98.6478 42.9212 98.6738 42.4199V41.1406C98.6608 40.7305 98.6055 40.3626 98.5078 40.0371C98.4102 39.7051 98.2734 39.4219 98.0977 39.1875C97.9219 38.9531 97.694 38.7708 97.4141 38.6406C97.1341 38.5104 96.8021 38.4453 96.418 38.4453C96.0469 38.4453 95.7246 38.5299 95.4512 38.6992C95.1842 38.862 94.9596 39.0866 94.7773 39.373C94.6016 39.6595 94.4681 39.998 94.377 40.3887C94.2858 40.7728 94.2402 41.1895 94.2402 41.6387Z" fill="#1A1A18"/>
</svg>
