<?xml version="1.0" standalone="no"?>
<!DOCTYPE svg PUBLIC "-//W3C//DTD SVG 20010904//EN"
 "http://www.w3.org/TR/2001/REC-SVG-20010904/DTD/svg10.dtd">
<svg version="1.0" xmlns="http://www.w3.org/2000/svg"
 width="75.000000pt" height="70.000000pt" viewBox="0 0 75.000000 70.000000"
 preserveAspectRatio="xMidYMid meet">
<metadata>
Created by potrace 1.10, written by Peter Selinger 2001-2011
</metadata>
<g transform="translate(0.000000,70.000000) scale(0.100000,-0.100000)"
fill="#282957" stroke="none">
<path d="M175 637 l-90 -53 -3 -108 -3 -107 -34 -16 c-21 -10 -35 -24 -35 -35
0 -23 7 -23 47 2 l32 19 89 -51 89 -51 19 -93 c10 -52 21 -99 25 -105 7 -11
121 -28 196 -29 42 0 43 1 65 53 52 120 60 131 106 142 24 5 43 13 43 18 1 22
-9 26 -48 16 l-42 -11 -76 68 -75 69 0 110 0 110 -94 53 c-52 28 -100 52 -108
52 -7 0 -53 -24 -103 -53z m273 -174 l2 -98 -85 -48 -86 -47 -82 48 -82 49 -3
95 -3 96 87 50 87 49 81 -47 81 -48 3 -99z m86 -196 l65 -57 -35 -78 c-20 -42
-39 -80 -43 -84 -6 -7 -171 9 -179 17 -2 2 -11 35 -18 72 -8 37 -17 76 -20 85
-4 13 14 28 73 62 43 25 81 45 85 43 4 -1 36 -28 72 -60z"/>
<path d="M147 543 c-4 -3 -7 -39 -7 -80 0 -56 3 -73 14 -73 11 0 15 18 18 71
3 66 -8 100 -25 82z"/>
<path d="M332 367 c-45 -28 -64 -56 -39 -59 16 -2 127 67 124 77 -7 19 -32 13
-85 -18z"/>
</g>
</svg>
